<svg xmlns="http://www.w3.org/2000/svg" viewBox="0 0 24 24" fill="none"><path fill="#5059C9" d="M22.5 12.05c0-1.25-.4-2.45-1.15-3.5 0-.05-.05-.05-.05-.1-.15-.2-.3-.45-.5-.65-.1-.1-.2-.2-.3-.3l-.1-.1c-.95-.9-2.2-1.4-3.55-1.4-1.95 0-3.65 1.05-4.65 2.65-.55-.25-1.15-.4-1.75-.4-2.5 0-4.5 2-4.5 4.5 0 2.5 2 4.5 4.5 4.5.6 0 1.2-.15 1.75-.4 1 1.6 2.7 2.65 4.65 2.65 1.35 0 2.6-.5 3.55-1.4.1-.1.2-.2.3-.3.2-.2.4-.45.5-.65.75-1.05 1.15-2.25 1.15-3.5z"/><path fill="#FFF" d="M16 16.5c-1.65 0-3-1.35-3-3s1.35-3 3-3 3 1.35 3 3-1.35 3-3 3zm-5.5-2c-.85 0-1.5-.65-1.5-1.5s.65-1.5 1.5-1.5 1.5.65 1.5 1.5-.65 1.5-1.5 1.5z"/><path fill="#5059C9" d="M16 11.5c-1.1 0-2 .9-2 2s.9 2 2 2 2-.9 2-2-.9-2-2-2zm-5.5 1c-.3 0-.5.2-.5.5s.2.5.5.5.5-.2.5-.5-.2-.5-.5-.5z"/><path fill="#FFF" d="M6 12H2V2h10v3h2V1a1 1 0 00-1-1H1a1 1 0 00-1 1v12a1 1 0 001 1h5v-2z" opacity=".5"/></svg>
